# xmcd
#
# Track frame offsets:
#        150
#        13592
#        28750
#        47647
#        55430
#        70215
#        83690
#        94887
#        108732
#        125642
#        143807
#        154627
#        168285
#        202075
#        226350
#
# Disc length: 4440 seconds
#
# Revision: 0
# Processed by: cddbd v1.5PL3 Copyright (c) Steve Scherf et al.
# Submitted via: ExactAudioCopy v0.95a4
#
DISCID=cf11560f
DTITLE=Various Artist - The Lizzie McGuire Movie
DYEAR=2004
DGENRE=Soundtrack
TTITLE0=Why Not - Hilary Duff
TTITLE1=The Tide Is High (Get the Feeling) - Atomic Kitten
TTITLE2=All Around the World - Cooler Kids
TTITLE3=What Dreams Are Made of (Ballad Version) - Paolo and Isabella
TTITLE4=Shining Star - Jump 5
TTITLE5=Volare - Vitamin C
TTITLE6=Open Your Eyes (To Love) - LMNT
TTITLE7=You Make Me Feel Like a Star (Lizzie Mix) - The Beu Sisters
TTITLE8=Supermodel - Taylor Dayne
TTITLE9=What Dreams Are Made of - Lizzie McGuire (Hilary Duff)
TTITLE10=On an Evening in Roma - Dean Martin
TTITLE11=Girl in the Band - Hilary Duff
TTITLE12=Orchestral Suite from The Lizzie McGuire Movie - Cliff Eidelm
TTITLE12=an
TTITLE13=Why Not (McMix) - Hilary Duff
TTITLE14=Data
EXTD=
EXTT0=
EXTT1=
EXTT2=
EXTT3=
EXTT4=
EXTT5=
EXTT6=
EXTT7=
EXTT8=
EXTT9=
EXTT10=
EXTT11=
EXTT12=
EXTT13=
EXTT14=
PLAYORDER=
